<svg width="24" height="24" viewBox="0 0 24 24" fill="none" xmlns="http://www.w3.org/2000/svg">
<path d="M10 4.00081C8.4087 4.00081 6.88258 4.63295 5.75736 5.75817C4.63214 6.88339 4 8.40951 4 10.0008C4 11.5921 4.63214 13.1182 5.75736 14.2434C6.88258 15.3687 8.4087 16.0008 10 16.0008C11.5913 16.0008 13.1174 15.3687 14.2426 14.2434C15.3679 13.1182 16 11.5921 16 10.0008C16 8.40951 15.3679 6.88339 14.2426 5.75817C13.1174 4.63295 11.5913 4.00081 10 4.00081ZM2 10.0008C2.00018 8.72767 2.30422 7.47296 2.88684 6.34095C3.46946 5.20894 4.31384 4.23234 5.3498 3.49229C6.38577 2.75225 7.5834 2.27014 8.84315 2.08604C10.1029 1.90194 11.3884 2.02115 12.5928 2.43378C13.7973 2.84642 14.8858 3.54054 15.768 4.45848C16.6502 5.37641 17.3006 6.49164 17.6651 7.71149C18.0296 8.93133 18.0977 10.2206 17.8638 11.472C17.6298 12.7235 17.1006 13.901 16.32 14.9068L21.707 20.2938C21.8892 20.4824 21.99 20.735 21.9877 20.9972C21.9854 21.2594 21.8802 21.5102 21.6948 21.6956C21.5094 21.881 21.2586 21.9862 20.9964 21.9885C20.7342 21.9908 20.4816 21.89 20.293 21.7078L14.906 16.3208C13.7235 17.2389 12.307 17.8068 10.8178 17.9598C9.32851 18.1128 7.82619 17.8449 6.48165 17.1865C5.1371 16.5281 4.00429 15.5056 3.21202 14.2353C2.41976 12.965 1.99983 11.4979 2 10.0008Z" fill="#828282"/>
</svg>
