<svg xmlns="http://www.w3.org/2000/svg" version="1.1" viewBox="-5.0 -10.0 110.0 135.0">
<g fill='#000654'>
<title>Created by Wehape from Noun Project</title>
<path d="m88.301 43.371c0.57812 1.8203 2.2812 3.1406 4.2891 3.1406 2.4805 0 4.5-2.0195 4.5-4.5s-2.0195-4.5-4.5-4.5c-2.0117 0-3.7109 1.3203-4.2891 3.1406h-16.469v-3.6016h4.9414c0.75 0 1.3594-0.60938 1.3594-1.3594s-0.60937-1.3594-1.3594-1.3594h-4.9414v-3.2305c0-1.5703-1.25-2.8516-2.7891-2.8516h-3.0586v-3.4805h4.0898c0.60156 1.8594 2.3398 3.1992 4.3984 3.1992 2.5508 0 4.6211-2.0703 4.6211-4.6211 0-2.5508-2.0703-4.6211-4.6211-4.6211-2.0898 0-3.8594 1.3984-4.4297 3.3086h-5.4219c-0.75 0-1.3594 0.60938-1.3594 1.3594v4.8398h-3.8398v-9.8594h5.2305c0.75 0 1.3594-0.60938 1.3594-1.3594v-5.4492c1.8516-0.60156 3.1914-2.3398 3.1914-4.3906 0-2.5508-2.0703-4.6211-4.6211-4.6211s-4.6211 2.0703-4.6211 4.6211c0 2.1016 1.4102 3.8711 3.3281 4.4297v4.0508h-5.2305c-0.75 0-1.3594 0.60938-1.3594 1.3594v11.23h-3.8398v-4.6289c0-0.75-0.60938-1.3594-1.3594-1.3594s-1.3594 0.60938-1.3594 1.3594v4.6289h-2.9609v-9.4297h-0.10938-4.3398c-0.66016 2.4102-2.8711 4.1797-5.4883 4.1797-3.1406 0-5.6914-2.5508-5.6914-5.6914 0-3.1406 2.5508-5.6914 5.6914-5.6914 2.6211 0 4.8203 1.7695 5.4883 4.1797h4.3398 0.10938v-3.8086c0-5.4219-4.4102-9.8203-9.8203-9.8203-4.9609 0-9.0703 3.6914-9.7305 8.4688-3.8711-1.3398-8.0195-0.51953-11.012 2.3008-2.1602 2.0391-3.3086 4.7188-3.3398 7.5 0.10938-0.03125 0.23047-0.039063 0.35938-0.039063h6.7891c0.53906 0 1.0391 0.28906 1.3086 0.75l3.3281 5.7695c0.41016-0.089843 0.82812-0.14062 1.2617-0.14062 2.6211 0 4.8203 1.7695 5.4883 4.1797h15.27 0.10938 21.879c0.011719 0 0.058594 0.039063 0.058594 0.12109v36.59c0 0.078126-0.050781 0.12109-0.058594 0.12109h-21.879-0.10938-9.4102c-0.53906 0-1.0391-0.28906-1.3086-0.75l-3.3906-5.8789c-0.53125 0.17188-1.1016 0.25-1.6797 0.25-3.1406 0-5.6914-2.5508-5.6914-5.6914 0-1.6914 0.73828-3.2188 1.9219-4.2617l-2.7695-4.7891h-14.512c-0.41016 0-0.78125-0.16016-1.0508-0.42187-3.7617 2.8711-6.0586 7.2383-6.2617 12.07h5.2109c0.66016-2.4102 2.8711-4.1797 5.4883-4.1797 3.1406 0 5.6914 2.5508 5.6914 5.6914s-2.5508 5.6914-5.6914 5.6914c-2.6211 0-4.8203-1.7695-5.4883-4.1797l-5.082 0.003906c0.75 5.2305 4.0195 9.75 8.8008 12.109h16.84c0.53906 0 1.0391 0.28906 1.3086 0.75l3.3008 5.7188c0.35156-0.070313 0.71094-0.10156 1.0781-0.10156 3.1406 0 5.6914 2.5508 5.6914 5.6914 0 3.1406-2.5508 5.6914-5.6914 5.6914s-5.6914-2.5508-5.6914-5.6914c0-1.6914 0.73828-3.1992 1.9102-4.2383l-2.7695-4.8086h-15.82c0.62109 6.9219 5.5391 11.07 10.75 12.262 1.4805 5.3203 6.3789 9.0898 11.969 9.0898 3.3203 0 6.4414-1.2891 8.7891-3.6406 2.3516-2.3516 3.6406-5.4688 3.6406-8.7891v-14.859h2.9609v9.6406c0 0.75 0.60938 1.3594 1.3594 1.3594h4.9492v7c-1.8203 0.57812-3.1406 2.2812-3.1406 4.2891 0 2.4805 2.0195 4.5 4.5 4.5s4.5-2.0195 4.5-4.5c0-2.0117-1.3203-3.7109-3.1406-4.2891v-8.3594c0-0.75-0.60938-1.3594-1.3594-1.3594h-4.9492v-8.2812h3.6016v3.4883c0 0.75 0.60938 1.3594 1.3594 1.3594s1.3594-0.60938 1.3594-1.3594v-3.4883h3.6016v3.2812c0 0.75 0.60938 1.3594 1.3594 1.3594h4.9492v7.0312c-1.8203 0.57813-3.1406 2.2812-3.1406 4.2891 0 2.4805 2.0195 4.5 4.5 4.5 2.4805 0 4.5-2.0195 4.5-4.5 0-2.0117-1.3203-3.7109-3.1406-4.2891v-8.3984c0-0.75-0.60938-1.3594-1.3594-1.3594h-4.9492v-1.9219h3.5391c1.5391 0 2.7891-1.2812 2.7891-2.8516v-5.3281h6.75v4.0391c-1.8203 0.57812-3.1406 2.2812-3.1406 4.2891 0 2.4805 2.0195 4.5 4.5 4.5s4.5-2.0195 4.5-4.5c0-2.0117-1.3203-3.7109-3.1406-4.2891v-5.3984c0-0.75-0.60938-1.3594-1.3594-1.3594h-8.1094v-3.6016h4.9414c0.75 0 1.3594-0.60938 1.3594-1.3594s-0.60938-1.3594-1.3594-1.3594h-4.9414v-3.6016h8.4883l5.5117 5.6094c-0.57031 0.75-0.91016 1.6914-0.91016 2.6992 0 2.4805 2.0195 4.5 4.5 4.5 2.4805 0 4.5-2.0195 4.5-4.5 0-2.4805-2.0195-4.5-4.5-4.5-0.46875 0-0.92188 0.070313-1.3398 0.19922l-6.2188-6.3398c-0.26172-0.26172-0.60938-0.41016-0.96875-0.41016h-9.0703v-3.6016h16.469zm4.2891-3.1328c0.98047 0 1.7812 0.80078 1.7812 1.7812s-0.80078 1.7812-1.7812 1.7812c-0.98047 0-1.7812-0.80078-1.7812-1.7812s0.80078-1.7812 1.7812-1.7812zm-18.129-18.777c1.0391 0 1.8906 0.85156 1.8906 1.8906 0 1.0391-0.85156 1.8906-1.8906 1.8906-1.0391 0-1.8906-0.85156-1.8906-1.8906 0-1.0391 0.85156-1.8906 1.8906-1.8906zm-11.781-14.281c0-1.0391 0.85156-1.8906 1.8906-1.8906 1.0391 0 1.8906 0.85156 1.8906 1.8906 0 1.0391-0.85156 1.8906-1.8906 1.8906-1.0391 0-1.8906-0.85156-1.8906-1.8906zm-4.8906 83.871c0.98047 0 1.7812 0.80078 1.7812 1.7812s-0.80078 1.7812-1.7812 1.7812c-0.98047 0-1.7812-0.80078-1.7812-1.7812s0.80078-1.7812 1.7812-1.7812zm12.66-6.332c0.98047 0 1.7812 0.80078 1.7812 1.7812s-0.80078 1.7812-1.7812 1.7812-1.7812-0.80078-1.7812-1.7812 0.80078-1.7812 1.7812-1.7812zm9.4922-15.809c0.98047 0 1.7812 0.80078 1.7812 1.7812 0 0.98047-0.80078 1.7812-1.7812 1.7812-0.98047 0-1.7812-0.80078-1.7812-1.7812 0-0.98047 0.80078-1.7812 1.7812-1.7812zm9.4883-12.672c0.98047 0 1.7812 0.80078 1.7812 1.7812s-0.80078 1.7812-1.7812 1.7812c-0.98047 0-1.7812-0.80078-1.7812-1.7812s0.80078-1.7812 1.7812-1.7812zm-55.039 31.961c-1.4688 0-2.6719-1.1992-2.6719-2.6719 0-1.4688 1.1992-2.6719 2.6719-2.6719 1.4688 0 2.6719 1.1992 2.6719 2.6719 0 1.4688-1.1992 2.6719-2.6719 2.6719zm2.8398-73.559c1.4688 0 2.6719 1.1992 2.6719 2.6719 0 1.4688-1.1992 2.6719-2.6719 2.6719-1.4688 0-2.6719-1.1992-2.6719-2.6719 0-1.4688 1.1992-2.6719 2.6719-2.6719zm-8.2617 17.84c0 1.4688-1.1992 2.6719-2.6719 2.6719-1.4688 0-2.6719-1.1992-2.6719-2.6719 0-1.4688 1.1992-2.6719 2.6719-2.6719 1.4688 0 2.6719 1.1992 2.6719 2.6719zm-15.367 30.039c-1.4688 0-2.6719-1.1992-2.6719-2.6719 0-1.4688 1.1992-2.6719 2.6719-2.6719 1.4688 0 2.6719 1.1992 2.6719 2.6719 0 1.4688-1.1992 2.6719-2.6719 2.6719zm-4.2227-18.598c-2.0898-3.2383-2.8008-6.5703-2.2383-10.27 0.44922-3.3203 2.4609-7.6289 6.6797-9.6289-0.070312-0.19922-0.12109-0.39063-0.17969-0.58984h5.8906l2.8516 4.9297c-1.0898 1.0391-1.7695 2.5-1.7695 4.1211 0 3.1406 2.5508 5.6914 5.6914 5.6914 2.6211 0 4.8203-1.7695 5.4883-4.1797h15.27 0.10938v0.53125h15.57c1.5391 0 2.7891 1.25 2.7891 2.7891v4.4219c0 0.75-0.60938 1.3594-1.3594 1.3594s-1.3594-0.60938-1.3594-1.3594v-4.4219s-0.03125-0.058594-0.058594-0.058594h-15.57v22.609h15.57s0.058594-0.03125 0.058594-0.058594v-11.398c0-0.75 0.60938-1.3594 1.3594-1.3594s1.3594 0.60938 1.3594 1.3594v11.398c0 1.5391-1.25 2.7891-2.7891 2.7891h-15.57v2.2305h-0.10938-8.5391l-3.0312-5.2383c0.91016-1.0117 1.4609-2.3398 1.4609-3.8086 0-3.1406-2.5508-5.6914-5.6914-5.6914-0.35938 0-0.71094 0.039062-1.0508 0.10156l-3.3008-5.7188c-0.26953-0.46875-0.76953-0.75-1.3086-0.75h-15.379c-0.30859 0-0.58984 0.089844-0.82812 0.25zm21.883 9.1367c1.4688 0 2.6719 1.1992 2.6719 2.6719 0 1.4688-1.1992 2.6719-2.6719 2.6719-1.4688 0-2.6719-1.1992-2.6719-2.6719 0-1.4688 1.1992-2.6719 2.6719-2.6719z"/>
</g>
</svg>