<svg xmlns="http://www.w3.org/2000/svg" version="1.1" viewBox="-5.0 -10.0 110.0 135.0">
<g fill='#000654'>
 <title>Created by Alhaliza Risma Elvariani from Noun Project</title>
 <path d="m3.125 24.25v-12.156c0-2.4727 1.0078-4.7148 2.6289-6.3398 1.625-1.6211 3.8672-2.6289 6.3398-2.6289h12.16c0.63281 0 1.1445 0.51172 1.1445 1.1445v4.8203c0 0.63281-0.51172 1.1445-1.1445 1.1445l-12.16-0.003906c-0.51172 0-0.97656 0.21094-1.3125 0.54688-0.33594 0.33984-0.54688 0.80469-0.54688 1.3125v12.16c0 0.63281-0.51172 1.1445-1.1445 1.1445h-4.8203c-0.63281 0-1.1445-0.51172-1.1445-1.1445zm37.59 37.859c0.60547 0.17578 0.94922 0.8125 0.77344 1.4141-0.17578 0.60547-0.8125 0.94922-1.4141 0.77344-3.4219-1.0117-6.3867-3.1133-8.4766-5.9062-2.0312-2.7188-3.2383-6.0977-3.2383-9.7695 0-4.5117 1.8281-8.5977 4.7891-11.559 2.957-2.957 7.043-4.7891 11.559-4.7891 4.5117 0 8.5977 1.8281 11.559 4.7891 2.957 2.957 4.7891 7.043 4.7891 11.559 0 4.5117-1.8281 8.5977-4.7891 11.559-2.957 2.957-7.043 4.7891-11.559 4.7891-0.63281 0-1.1445-0.51172-1.1445-1.1445 0-0.63281 0.51172-1.1445 1.1445-1.1445 3.8828 0 7.3984-1.5742 9.9414-4.1172 2.543-2.543 4.1172-6.0586 4.1172-9.9414 0-3.8828-1.5742-7.3984-4.1172-9.9414-2.543-2.543-6.0586-4.1172-9.9414-4.1172-3.8828 0-7.3984 1.5742-9.9414 4.1172-2.543 2.543-4.1172 6.0586-4.1172 9.9414 0 3.1602 1.0352 6.0625 2.7812 8.4023 1.7969 2.4102 4.3477 4.2188 7.2852 5.0859zm26.641-13.375c-0.63281 0-1.1445-0.51172-1.1445-1.1445 0-0.63281 0.51172-1.1445 1.1445-1.1445h26.473c0.83984 0 1.6016 0.34375 2.1562 0.89453 0.55078 0.55078 0.89453 1.3164 0.89453 2.1523v1.0078c0 0.83984-0.33984 1.6016-0.89453 2.1523-0.55078 0.55078-1.3164 0.89453-2.1562 0.89453l-26.762 0.003906c-0.63281 0-1.1445-0.51172-1.1445-1.1445s0.51172-1.1445 1.1445-1.1445h26.762c0.21094 0 0.39844-0.085938 0.53906-0.22266 0.13672-0.13672 0.22266-0.32812 0.22266-0.53906v-1.0078c0-0.21094-0.085938-0.39844-0.22266-0.53906-0.13672-0.13672-0.32813-0.22266-0.53906-0.22266h-26.473zm-45.008 2.5312c0.63281 0 1.1445 0.51172 1.1445 1.1445 0 0.63281-0.51172 1.1445-1.1445 1.1445h-16.172c-0.83984 0-1.6016-0.34375-2.1562-0.89453-0.55078-0.55469-0.89453-1.3164-0.89453-2.1562v-1.0078c0-0.83984 0.34375-1.6016 0.89453-2.1523s1.3164-0.89453 2.1562-0.89453h15.875c0.63281 0 1.1445 0.51172 1.1445 1.1445s-0.51172 1.1445-1.1445 1.1445l-15.875-0.003906c-0.21094 0-0.39844 0.085937-0.53906 0.22266-0.13672 0.13672-0.22266 0.32812-0.22266 0.53906v1.0078c0 0.21094 0.085938 0.39844 0.22266 0.53906 0.13672 0.13672 0.32812 0.22266 0.53906 0.22266l16.172 0.003906zm4.7539-18.094h-0.11719v-6.2305h6.2305v1.4961c0 0.63281 0.51172 1.1445 1.1445 1.1445s1.1445-0.51172 1.1445-1.1445v-1.9375c0-0.46094-0.17188-0.88281-0.45312-1.207-0.027343-0.035157-0.054687-0.066407-0.085937-0.097657-0.33203-0.33203-0.79297-0.53906-1.3047-0.53906h-7.1133c-0.50391 0-0.96094 0.20703-1.2969 0.53906l-0.007812 0.007813c-0.33594 0.33594-0.53906 0.79688-0.53906 1.3008v7.1133c0 0.50781 0.20703 0.96875 0.53906 1.3047l0.003906-0.003906 0.003906 0.003906c0.33594 0.33594 0.79297 0.53906 1.3008 0.53906h0.55859c0.63281 0 1.1445-0.51172 1.1445-1.1445-0.011718-0.63281-0.52344-1.1445-1.1523-1.1445zm39.246 31.371h7.1133c0.50781 0 0.96875 0.20703 1.3047 0.53906 0.33594 0.33594 0.53906 0.79688 0.53906 1.3047v7.1133c0 0.50781-0.20703 0.96875-0.53906 1.3047-0.03125 0.03125-0.066406 0.058593-0.097656 0.085937-0.32422 0.28125-0.74609 0.45312-1.207 0.45312h-7.1133c-0.50391 0-0.96484-0.20703-1.3008-0.54297l-0.003906-0.003906-0.003907 0.003906c-0.33594-0.33203-0.53906-0.79297-0.53906-1.3047v-7.1133c0-0.50391 0.20703-0.96484 0.53906-1.3008l0.007813-0.007812c0.33594-0.32422 0.79688-0.53125 1.3008-0.53125zm6.6719 2.2852h-6.2305v6.2305h6.2305zm-6.6719-42.176h7.1133c0.50781 0 0.96875 0.20703 1.3047 0.53906 0.33594 0.33594 0.53906 0.79297 0.53906 1.3047v7.1133c0 0.50781-0.20703 0.96875-0.53906 1.3047-0.03125 0.03125-0.066406 0.058594-0.097656 0.085938-0.32422 0.28125-0.74609 0.45312-1.207 0.45312h-7.1133c-0.50391 0-0.96484-0.20703-1.3008-0.53906l-0.003906-0.003906v0.007813c-0.33594-0.33203-0.53906-0.79297-0.53906-1.3047v-7.1133c0-0.50391 0.20703-0.96484 0.53906-1.3008l0.007812-0.007813c0.33203-0.33203 0.79297-0.53906 1.2969-0.53906zm6.6719 2.2891h-6.2305v6.2305h6.2305zm-49.668 12.875h-2.3633c-0.17969 0-0.33984-0.074218-0.46094-0.19141-0.11719-0.11719-0.19141-0.28125-0.19141-0.46094v-18.219c0-0.17969 0.074218-0.33984 0.19141-0.46094 0.11719-0.11719 0.28125-0.19141 0.46094-0.19141h18.215c0.17969 0 0.33984 0.074219 0.46094 0.19141 0.11719 0.11719 0.19141 0.28125 0.19141 0.46094v5.3047c0 0.63281 0.51172 1.1445 1.1445 1.1445s1.1445-0.51172 1.1445-1.1445v-5.3047c0-0.80859-0.33203-1.543-0.86328-2.0781-0.53125-0.53125-1.2695-0.86328-2.0781-0.86328l-18.215 0.003906c-0.80859 0-1.543 0.33203-2.0781 0.86328-0.53125 0.53125-0.86328 1.2695-0.86328 2.0781v18.215c0 0.80859 0.33203 1.543 0.86328 2.0781 0.53125 0.53125 1.2695 0.86328 2.0781 0.86328h2.3594c0.63281 0 1.1445-0.51172 1.1445-1.1445 0-0.63281-0.51172-1.1445-1.1406-1.1445zm41.504 20.367h14.156c0.17969 0 0.33984 0.074218 0.46094 0.19141 0.11719 0.11719 0.19141 0.28125 0.19141 0.46094v18.215c0 0.17969-0.074218 0.33984-0.19141 0.46094-0.11719 0.11719-0.28125 0.19141-0.46094 0.19141l-18.219 0.003906c-0.17969 0-0.33984-0.074219-0.46094-0.19141-0.11719-0.11719-0.19141-0.28125-0.19141-0.46094v-12.812c0-0.63281-0.51172-1.1445-1.1445-1.1445-0.63281 0-1.1445 0.51172-1.1445 1.1445v12.812c0 0.80859 0.33203 1.543 0.86328 2.0781 0.53125 0.53125 1.2695 0.86328 2.0781 0.86328l18.219-0.003906c0.80859 0 1.543-0.33203 2.0781-0.86328 0.53125-0.53125 0.86328-1.2695 0.86328-2.0781l-0.003906-18.215c0-0.80859-0.33203-1.543-0.86328-2.0781-0.53125-0.53125-1.2695-0.86328-2.0781-0.86328l-14.152 0.003907c-0.63281 0-1.1445 0.51172-1.1445 1.1445 0.003906 0.62891 0.51562 1.1406 1.1445 1.1406zm-4.7148-29.176v-10.062c0-0.17969 0.074219-0.33984 0.19141-0.46094 0.11719-0.11719 0.28125-0.19141 0.46094-0.19141h18.219c0.17969 0 0.33984 0.074219 0.46094 0.19141 0.11719 0.11719 0.19141 0.28125 0.19141 0.46094v18.215c0 0.17969-0.074218 0.33984-0.19141 0.46094-0.11719 0.11719-0.28125 0.19141-0.46094 0.19141l-12.965 0.003906c-0.63281 0-1.1445 0.51172-1.1445 1.1445 0 0.63281 0.51172 1.1445 1.1445 1.1445l12.965-0.003907c0.80859 0 1.543-0.33203 2.0781-0.86328 0.53125-0.53125 0.86328-1.2695 0.86328-2.0781l-0.003906-18.215c0-0.80859-0.33203-1.543-0.86328-2.0781-0.53125-0.53125-1.2695-0.86328-2.0781-0.86328l-18.215 0.003906c-0.80859 0-1.543 0.33203-2.0781 0.86328-0.53125 0.53125-0.86328 1.2695-0.86328 2.0781v10.062c0 0.63281 0.51172 1.1445 1.1445 1.1445 0.63281-0.003906 1.1445-0.51562 1.1445-1.1484zm-29.441 32.445-1.4766 1.8242 2.625 2.1484 1.5-1.8555c-0.47656-0.32031-0.94141-0.66016-1.3984-1.0273-0.046875-0.03125-0.09375-0.070313-0.13672-0.10938-0.38281-0.31641-0.75391-0.64453-1.1133-0.98047zm-3.2422 0.38281c-0.48828-0.35156-1.168-0.26563-1.5508 0.20312-0.023438 0.03125-0.050781 0.0625-0.070312 0.097657l-10.973 13.719c-1.6172 2.0234-1.6289 4.1641-0.77344 5.8047 0.32812 0.63281 0.79297 1.1875 1.3438 1.6328 0.55078 0.44141 1.1914 0.77344 1.8828 0.95703 1.7617 0.46875 3.8047-0.007812 5.4023-2.0039l11.039-13.801c0.38281-0.48047 0.31641-1.1758-0.14844-1.5703l1.7227-2.1289c3.6133 1.8711 7.625 2.5742 11.523 2.1602 5.1641-0.54688 10.117-3.0547 13.656-7.3945 0.039062-0.042969 0.078125-0.089844 0.10938-0.13672 3.5-4.3672 4.9102-9.7383 4.3633-14.902-0.55078-5.1914-3.082-10.172-7.4648-13.711-4.3789-3.5391-9.7773-4.9688-14.969-4.418-5.1641 0.54688-10.117 3.0547-13.656 7.3945-0.039062 0.042969-0.078125 0.089844-0.10938 0.13672-3.5 4.3672-4.9102 9.7383-4.3633 14.902 0.42188 3.9766 2.0078 7.832 4.6953 11.008zm3.8203 6.0703-10.332 12.918c-0.94141 1.1797-2.0859 1.4727-3.043 1.2188-0.375-0.10156-0.72656-0.28516-1.0352-0.52734-0.30469-0.24609-0.55859-0.55469-0.74609-0.91016-0.47266-0.91016-0.44141-2.1289 0.52344-3.332l10.316-12.898zm24.812-35.371c-3.8906-3.1445-8.6914-4.4141-13.301-3.9258-4.6094 0.48828-9.0352 2.7383-12.176 6.625-3.1445 3.8906-4.4141 8.6914-3.9258 13.301 0.40625 3.8125 2.0117 7.5 4.7578 10.438l0.007813 0.007813c0.57031 0.60938 1.1914 1.1875 1.8594 1.7266 3.8906 3.1445 8.6875 4.4141 13.301 3.9258 4.6094-0.48828 9.0352-2.7383 12.176-6.625 3.1445-3.8906 4.4141-8.6914 3.9258-13.301-0.48828-4.6055-2.7344-9.0273-6.625-12.172zm-50.68-22.441v11.016h2.5352v-11.016c0-1.1406 0.46484-2.1797 1.2188-2.9297 0.75-0.75 1.7891-1.2188 2.9297-1.2188h11.016l-0.003906-2.5352h-11.012c-1.8398 0-3.5117 0.75-4.7227 1.9609-1.2109 1.2109-1.9609 2.8828-1.9609 4.7227zm70.34-8.9688c-0.63281 0-1.1445 0.51172-1.1445 1.1445v4.8203c0 0.63281 0.51172 1.1445 1.1445 1.1445l12.156-0.003906c0.51172 0 0.97656 0.21094 1.3125 0.54688 0.33984 0.33984 0.54688 0.80469 0.54688 1.3125v12.16c0 0.63281 0.51172 1.1445 1.1445 1.1445h4.8203c0.63281 0 1.1445-0.51172 1.1445-1.1445v-12.156c0-2.4727-1.0078-4.7148-2.6289-6.3398-1.625-1.6211-3.8672-2.6289-6.3398-2.6289zm12.156 2.2852c1.8398 0 3.5117 0.75 4.7227 1.9609 1.2109 1.2109 1.9609 2.8828 1.9609 4.7227v11.016h-2.5352v-11.016c0-1.1406-0.46484-2.1797-1.2188-2.9297-0.75-0.75-1.7891-1.2188-2.9297-1.2188h-11.016v-2.5352zm8.9688 70.34c0-0.63281-0.51172-1.1445-1.1445-1.1445h-4.8203c-0.63281 0-1.1445 0.51172-1.1445 1.1445l0.003906 12.156c0 0.51172-0.21094 0.97656-0.54688 1.3125-0.33984 0.33984-0.80469 0.54688-1.3125 0.54688l-12.16 0.003906c-0.63281 0-1.1445 0.51172-1.1445 1.1445v4.8203c0 0.63281 0.51172 1.1445 1.1445 1.1445l12.156-0.003906c2.4727 0 4.7148-1.0078 6.3398-2.6289 1.6211-1.625 2.6289-3.8672 2.6289-6.3398zm-2.2852 12.156c0 1.8398-0.75 3.5117-1.9609 4.7227-1.2109 1.2109-2.8789 1.9609-4.7227 1.9609h-11.016v-2.5352h11.016c1.1406 0 2.1797-0.46484 2.9297-1.2188 0.75-0.75 1.2188-1.7891 1.2188-2.9297v-11.016h2.5352l-0.003906 11.016zm-70.336 8.9688h-12.16c-2.4727 0-4.7148-1.0078-6.3398-2.6289-1.6211-1.625-2.6289-3.8672-2.6289-6.3398v-12.156c0-0.63281 0.51172-1.1445 1.1445-1.1445h4.8203c0.63281 0 1.1445 0.51172 1.1445 1.1445l-0.003906 12.156c0 0.51172 0.21094 0.97656 0.54688 1.3125 0.33984 0.33984 0.80469 0.54688 1.3125 0.54688h12.16c0.63281 0 1.1445 0.51172 1.1445 1.1445v4.8203c0 0.63281-0.51172 1.1445-1.1406 1.1445zm-12.16-2.2852c-1.8398 0-3.5117-0.75-4.7227-1.9609-1.2109-1.2109-1.9609-2.8789-1.9609-4.7227v-11.016h2.5352v11.016c0 1.1406 0.46484 2.1797 1.2188 2.9297 0.75 0.75 1.7891 1.2188 2.9297 1.2188h11.016v2.5352l-11.016-0.003906z" fill-rule="evenodd"/>
 </g>
</svg>