<svg width="24" height="24" viewBox="0 0 24 24" fill="none" xmlns="http://www.w3.org/2000/svg">
<path d="M10 3.99983C8.4087 3.99983 6.88258 4.63197 5.75736 5.75719C4.63214 6.88241 4 8.40853 4 9.99983C4 11.5911 4.63214 13.1173 5.75736 14.2425C6.88258 15.3677 8.4087 15.9998 10 15.9998C11.5913 15.9998 13.1174 15.3677 14.2426 14.2425C15.3679 13.1173 16 11.5911 16 9.99983C16 8.40853 15.3679 6.88241 14.2426 5.75719C13.1174 4.63197 11.5913 3.99983 10 3.99983ZM2 9.99983C2.00018 8.72669 2.30422 7.47198 2.88684 6.33997C3.46946 5.20797 4.31384 4.23136 5.3498 3.49132C6.38577 2.75127 7.5834 2.26917 8.84315 2.08506C10.1029 1.90096 11.3884 2.02018 12.5928 2.43281C13.7973 2.84544 14.8858 3.53957 15.768 4.4575C16.6502 5.37543 17.3006 6.49067 17.6651 7.71051C18.0296 8.93035 18.0977 10.2196 17.8638 11.471C17.6298 12.7225 17.1006 13.9001 16.32 14.9058L21.707 20.2928C21.8892 20.4814 21.99 20.734 21.9877 20.9962C21.9854 21.2584 21.8802 21.5092 21.6948 21.6947C21.5094 21.8801 21.2586 21.9852 20.9964 21.9875C20.7342 21.9898 20.4816 21.889 20.293 21.7068L14.906 16.3198C13.7235 17.2379 12.307 17.8058 10.8178 17.9588C9.32851 18.1118 7.82619 17.8439 6.48165 17.1855C5.1371 16.5271 4.00429 15.5046 3.21202 14.2343C2.41976 12.964 1.99983 11.4969 2 9.99983Z" fill="#7F99FC"/>
</svg>
